Motion_pl15
version=1
nRows=13
nColumns=43
inDegrees=yes
endheader
time	pelvis_tilt	pelvis_list	pelvis_rotation	pelvis_tx	pelvis_ty	pelvis_tz	hip_flexion_r	hip_adduction_r	hip_rotation_r	knee_angle_r	ankle_angle_r	subtalar_angle_r	mtp_angle_r	hip_flexion_l	hip_adduction_l	hip_rotation_l	knee_angle_l	ankle_angle_l	subtalar_angle_l	mtp_angle_l	lumbar_extension	lumbar_bending	lumbar_rotation	neck_flexion	neck_lateral_bending	neck_rotation	arm_flex_r	arm_add_r	arm_rot_r	elbow_flex_r	pro_sup_r	wrist_flex_r	wrist_dev_r	hand_finger_flex_r	arm_flex_l	arm_add_l	arm_rot_l	elbow_flex_l	pro_sup_l	wrist_flex_l	wrist_dev_l	hand_finger_flex_l
      0.85500000	     -0.33953047	      3.11753694	     87.98387769	      0.05850683	      1.76685366	      1.99860552	     90.50997582	     -4.19668466	      4.85723089	   -146.14076825	     22.47159383	      4.39332687	      4.38694673	     89.55298455	     -9.31915117	      9.97367796	   -146.69131436	     20.18115770	     23.78798746	     26.24442187	    -68.17773215	     -1.81902865	      1.95305815	     36.25896819	     -0.51672355	     -1.24926112	     15.64848027	    -23.25013110	     -5.95935491	     69.74653407	    115.69843614	     -2.52533300	    -10.80600328	    -16.62313954	     19.51637443	    -21.76898488	     -3.25977087	     66.63021944	    117.44473880	     -9.19405448	     -3.94182554	      7.33857284
      0.85750000	     -0.33722585	      3.08033737	     87.97210653	      0.05848123	      1.76700154	      1.99846334	     90.51673079	     -4.19689535	      4.84654682	   -146.11602831	     22.47258316	      4.39534087	      4.38400217	     89.54822165	     -9.30115625	      9.97587774	   -146.65747787	     20.18131102	     23.78591770	     26.24331839	    -68.22786912	     -1.82713550	      1.94995276	     36.26702533	     -0.51495027	     -1.24857817	     15.59417666	    -23.24406818	     -5.96396520	     69.72917848	    115.69816404	     -2.53505163	    -10.80284128	    -16.62043526	     19.43332456	    -21.75505727	     -3.23534259	     66.59097915	    117.44549600	     -9.20039823	     -3.94238773	      7.34188683
      0.86000000	     -0.32322685	      3.02674825	     87.95261287	      0.05837359	      1.76714553	      1.99826849	     90.50519930	     -4.19906539	      4.83317504	   -146.08421069	     22.47168832	      4.39759218	      4.37821629	     89.53060099	     -9.28443369	      9.97079782	   -146.64248632	     20.17929323	     23.78229477	     26.24151981	    -68.25554398	     -1.82268186	      1.94319312	     36.28442651	     -0.50728169	     -1.24786279	     15.52963806	    -23.22590119	     -5.99945414	     69.74414680	    115.69486079	     -2.56908598	    -10.80893899	    -16.61896814	     19.31811911	    -21.75015885	     -3.20794904	     66.54903101	    117.44556832	     -9.22620311	     -3.95658103	      7.34379845
      0.86250000	     -0.32132441	      3.00132628	     87.94936333	      0.05836866	      1.76728083	      1.99815516	     90.51556254	     -4.19631373	      4.82457553	   -146.06516676	     22.47371542	      4.39880834	      4.37639276	     89.54747828	     -9.28038735	      9.97101526	   -146.63078990	     20.18258572	     23.77940657	     26.24107881	    -68.32258552	     -1.82172890	      1.93216641	     36.28707939	     -0.50389635	     -1.24746645	     15.48644528	    -23.21390263	     -6.01575215	     69.74394190	    115.69358560	     -2.58441134	    -10.81076057	    -16.61871345	     19.24773692	    -21.73867985	     -3.18937738	     66.52284923	    117.44597378	     -9.23653827	     -3.96289174	      7.34410543
      0.86500000	     -0.24172764	      2.84337006	     87.97228915	      0.05831116	      1.76704235	      1.99784453	     90.62090042	     -4.21433715	      4.71203015	   -146.06522085	     22.51549562	      4.32222723	      4.08964973	     89.72769250	     -9.23994795	     10.03273809	   -146.67902193	     20.18327058	     23.55516368	     26.13849641	    -68.29403501	     -1.75289912	      2.25236490	     36.56317373	     -0.67863183	     -1.41621131	     14.85951947	    -23.10804413	     -6.67800975	     70.23751837	    115.94599173	     -3.59757505	    -11.05460187	    -15.85065837	     19.34829248	    -21.76735261	     -2.34130968	     66.10632168	    117.28196890	    -10.99971356	     -5.06601315	      7.53441032
      0.86750000	     -0.24175800	      2.81228046	     87.96490565	      0.05827519	      1.76719957	      1.99771566	     90.62418464	     -4.21512291	      4.70096574	   -146.04519867	     22.51531492	      4.32459659	      4.08858783	     89.73302213	     -9.23477290	     10.02956519	   -146.66352059	     20.18511955	     23.55634209	     26.13804979	    -68.35247432	     -1.75913288	      2.24106725	     36.55980528	     -0.67583920	     -1.41776036	     14.82833689	    -23.09485231	     -6.68360495	     70.22656246	    115.94219426	     -3.60155076	    -11.05184227	    -15.84703643	     19.28409938	    -21.75128824	     -2.32677911	     66.07653331	    117.27969076	    -10.99719282	     -5.05971163	      7.54036593
      0.87000000	     -0.23763001	      2.77818578	     87.94846689	      0.05824963	      1.76726814	      1.99755274	     90.61552989	     -4.21798582	      4.68742275	   -146.01441224	     22.51311383	      4.32676657	      4.08708283	     89.72624475	     -9.22681662	     10.02150540	   -146.64788260	     20.18573482	     23.55796503	     26.13717816	    -68.39431874	     -1.76297818	      2.22832174	     36.55766583	     -0.67251515	     -1.41984847	     14.78958841	    -23.06497610	     -6.69790370	     70.23093933	    115.93160402	     -3.61299161	    -11.05510693	    -15.84501910	     19.19912774	    -21.73106968	     -2.31421203	     66.04668108	    117.27499758	    -11.00139372	     -5.05710320	      7.54651659
      0.87250000	     -0.22728530	      2.76996391	     87.93803222	      0.05831949	      1.76742217	      1.99735948	     90.56152577	     -4.21645240	      4.64337411	   -146.00086833	     22.50521068	      4.31234278	      4.07729448	     89.69147634	     -9.26269887	     10.01394378	   -146.65368704	     20.20570467	     23.54444917	     26.12735232	    -68.50466748	     -1.75599026	      2.18438364	     36.57182947	     -0.71080744	     -1.41110479	     14.64275841	    -22.77108350	     -7.01347545	     70.42401196	    115.72869910	     -3.82112886	    -11.16072884	    -15.86575236	     18.98531954	    -21.67636895	     -2.49246721	     66.16708080	    117.17507876	    -11.23600190	     -5.17108799	      7.57187469
      0.87500000	     -0.22677504	      2.74039404	     87.92573410	      0.05829359	      1.76749777	      1.99722335	     90.56727126	     -4.21546941	      4.64302796	   -145.98107327	     22.50594536	      4.30978585	      4.07700698	     89.68955767	     -9.24656727	     10.01295420	   -146.64126059	     20.20699571	     23.54430009	     26.12656207	    -68.55705235	     -1.76229214	      2.18825615	     36.57928492	     -0.71233127	     -1.41063840	     14.60318800	    -22.75002020	     -7.00453355	     70.40889336	    115.71867279	     -3.82290470	    -11.16321358	    -15.86574762	     18.92662552	    -21.64986058	     -2.47221182	     66.14681070	    117.17266434	    -11.24096697	     -5.17436982	      7.57545712
      0.87750000	     -0.22561617	      2.70225049	     87.90761497	      0.05824109	      1.76757080	      1.99704685	     90.55895464	     -4.21518271	      4.64049460	   -145.95705911	     22.50351758	      4.30531152	      4.07665410	     89.68098014	     -9.22972857	     10.00821181	   -146.62996313	     20.20864067	     23.54406500	     26.12535905	    -68.60086428	     -1.76710404	      2.18918266	     36.58874249	     -0.71662489	     -1.41010813	     14.56228824	    -22.71044302	     -7.00071362	     70.41620624	    115.69464540	     -3.83379403	    -11.17801594	    -15.87274909	     18.85307788	    -21.61075703	     -2.45231539	     66.12994341	    117.16714799	    -11.25744374	     -5.18595402	      7.57722901
      0.88000000	     -0.22247393	      2.69562328	     87.89155961	      0.05818902	      1.76768030	      1.99684863	     90.50533612	     -4.19938470	      4.62825070	   -145.93655729	     22.47379357	      4.21226319	      4.08194509	     89.63268308	     -9.24014913	      9.98482298	   -146.63879237	     20.25208448	     23.51382755	     26.10867358	    -68.74813993	     -1.74713664	      2.17129432	     36.74245375	     -0.84490163	     -1.38394273	     14.34910425	    -22.47922973	     -7.30513027	     70.68034357	    115.21675198	     -4.13725986	    -11.47660836	    -16.08294141	     18.63023984	    -21.48147275	     -2.67732345	     66.26335109	    117.03245563	    -11.73193822	     -5.47922516	      7.53089562
      0.88250000	     -0.22524885	      2.66237786	     87.88242053	      0.05821534	      1.76778159	      1.99668866	     90.50992663	     -4.20473551	      4.62376693	   -145.92870099	     22.47312399	      4.20898394	      4.08250989	     89.63116548	     -9.22742759	      9.98402304	   -146.62480823	     20.25337850	     23.51278795	     26.10754408	    -68.79790011	     -1.75725434	      2.17854689	     36.75239827	     -0.84457394	     -1.38474757	     14.31731019	    -22.45438524	     -7.27911681	     70.66331913	    115.20004980	     -4.13661297	    -11.48253128	    -16.08943084	     18.57982517	    -21.44342351	     -2.64318019	     66.24226827	    117.03081847	    -11.73758507	     -5.48734845	      7.53347681
      0.88500000	     -0.22231327	      2.62454501	     87.88324130	      0.05809364	      1.76793571	      1.99638550	     90.48095845	     -4.24744890	      4.57874951	   -145.91722606	     22.42449984	      4.01269427	      4.11327313	     89.59319528	     -9.20414525	      9.94066560	   -146.62633427	     20.32028463	     23.44955002	     26.06570943	    -68.92157102	     -1.74898463	      2.22305458	     37.08812255	     -0.86251823	     -1.42349218	     14.11669083	    -22.42392549	     -7.34983039	     70.76328828	    114.27338039	     -4.55473195	    -11.98779069	    -16.58143035	     18.46954903	    -21.25984945	     -2.67471214	     66.20703764	    116.82082313	    -12.52462955	     -6.04947742	      7.46811826
